<svg width="28" height="28" viewBox="0 0 28 28" fill="none" xmlns="http://www.w3.org/2000/svg">
<path d="M22.7151 0C22.3381 0 21.9606 0.143638 21.6732 0.431743L19.8647 2.24027C19.4742 2.63079 19.4742 3.26395 19.8647 3.65447L24.3452 8.13498C24.7357 8.52551 25.3688 8.52551 25.7594 8.13498L27.5679 6.32648C28.1441 5.75027 28.1441 4.81734 27.5679 4.2426L23.7571 0.431743C23.469 0.143638 23.0922 0 22.7151 0ZM17.6542 5.86502C17.2637 5.47449 16.6305 5.47449 16.24 5.86502L0.292888 21.8124C0.105355 21.9999 0 22.2543 0 22.5195V27C0 27.5523 0.447715 28 1 28H5.48043C5.74565 28 6.00001 27.8946 6.18754 27.7071L22.1347 11.7597C22.5252 11.3692 22.5252 10.7361 22.1347 10.3455L17.6542 5.86502Z" fill="#231149"/>
</svg>
