<svg width="27" height="36" viewBox="0 0 27 36" fill="none" xmlns="http://www.w3.org/2000/svg">
<g filter="url(#filter0_d_43_2363)">
<path fill-rule="evenodd" clip-rule="evenodd" d="M18.9286 12.8V7.15714C18.9286 6.40761 19.5362 5.8 20.2857 5.8C21.0321 5.8 21.6429 5.17 21.6429 4.4C21.6429 3.63 21.0321 3 20.2857 3H6.71429C5.96786 3 5.35714 3.63 5.35714 4.4C5.35714 5.17 5.96786 5.8 6.71429 5.8C7.46381 5.8 8.07143 6.40761 8.07143 7.15714V12.8C8.07143 14.6273 6.94719 16.1776 5.37157 16.7568C4.64586 17.0236 4 17.6268 4 18.4C4 19.1732 4.6268 19.8 5.4 19.8H10.1021C11.2067 19.8 12.1021 20.6954 12.1021 21.8V29.0502C12.1021 29.4028 12.2394 29.7416 12.4848 29.9948C13.018 30.5448 13.9005 30.5448 14.4337 29.9948C14.6792 29.7416 14.8164 29.4028 14.8164 29.0502V21.8C14.8164 20.6954 15.7119 19.8 16.8164 19.8H21.6C22.3732 19.8 23 19.1732 23 18.4C23 17.6268 22.3541 17.0236 21.6284 16.7568C20.0528 16.1776 18.9286 14.6273 18.9286 12.8Z" fill="#231149"/>
</g>
<defs>
<filter id="filter0_d_43_2363" x="0" y="0" width="27" height="35.4073" filterUnits="userSpaceOnUse" color-interpolation-filters="sRGB">
<feFlood flood-opacity="0" result="BackgroundImageFix"/>
<feColorMatrix in="SourceAlpha" type="matrix" values="0 0 0 0 0 0 0 0 0 0 0 0 0 0 0 0 0 0 127 0" result="hardAlpha"/>
<feOffset dy="1"/>
<feGaussianBlur stdDeviation="2"/>
<feComposite in2="hardAlpha" operator="out"/>
<feColorMatrix type="matrix" values="0 0 0 0 0.509437 0 0 0 0 0.427309 0 0 0 0 0.679167 0 0 0 1 0"/>
<feBlend mode="normal" in2="BackgroundImageFix" result="effect1_dropShadow_43_2363"/>
<feBlend mode="normal" in="SourceGraphic" in2="effect1_dropShadow_43_2363" result="shape"/>
</filter>
</defs>
</svg>
