<svg width="23" height="28" viewBox="0 0 23 28" fill="none" xmlns="http://www.w3.org/2000/svg">
<path fill-rule="evenodd" clip-rule="evenodd" d="M2.01691 7C1.41966 7 0.955584 7.52011 1.02337 8.1135L3.01748 25.5691C3.20081 26.9551 4.38473 28 5.77084 28H17.2265C18.6126 28 19.7978 26.9568 19.9825 25.5582L21.9766 8.11356C22.0444 7.52015 21.5803 7 20.983 7H2.01691ZM6.08716 12.1705C6.03903 11.6203 6.44602 11.1353 6.9962 11.0872C7.54639 11.039 8.03142 11.446 8.07955 11.9962L8.95111 21.9581C8.99925 22.5083 8.59226 22.9934 8.04207 23.0415C7.49189 23.0896 7.00686 22.6826 6.95872 22.1325L6.08716 12.1705ZM16.0421 11.0872C16.5923 11.1353 16.9993 11.6203 16.9511 12.1705L16.0796 22.1325C16.0314 22.6826 15.5464 23.0896 14.9962 23.0415C14.446 22.9934 14.039 22.5083 14.0872 21.9581L14.9587 11.9962C15.0069 11.446 15.4919 11.039 16.0421 11.0872Z" fill="#231149"/>
<path d="M1.4 1.4H7.3473C7.97838 1.4 8.58332 1.14801 9.02778 0.7C9.47223 0.25199 10.0772 0 10.7082 0H12.2917C12.9228 0 13.5278 0.25199 13.9722 0.7C14.4167 1.14801 15.0216 1.4 15.6527 1.4H21.6C22.3732 1.4 23 2.0268 23 2.8C23 3.5732 22.3732 4.2 21.6 4.2H1.4C0.626801 4.2 0 3.5732 0 2.8C0 2.0268 0.626801 1.4 1.4 1.4Z" fill="#231149"/>
</svg>
