<svg width="22" height="28" viewBox="0 0 22 28" fill="none" xmlns="http://www.w3.org/2000/svg">
<path d="M2.75 10.3333H3.75V9.33333V8C3.75 4.14932 6.95282 1 11 1C13.5588 1 15.7869 2.26337 17.0744 4.166C17.0932 4.19389 17.0949 4.20945 17.0953 4.21604C17.0959 4.22561 17.0948 4.24484 17.082 4.27295C17.0547 4.33323 16.9835 4.40902 16.8642 4.44071C16.7179 4.47956 16.4323 4.42242 16.182 4.10252C14.9958 2.58629 13.1272 1.66667 11 1.66667C7.34718 1.66667 4.5 4.38401 4.5 8V9.33333V10.3333H5.5H16.5H19.25C20.2394 10.3333 21 11.1144 21 12V25.3333C21 26.2189 20.2394 27 19.25 27H2.75C1.76056 27 1 26.2189 1 25.3333V12C1 11.1144 1.76056 10.3333 2.75 10.3333ZM14.75 18.6667C14.75 16.6189 13.0356 15 11 15C8.96444 15 7.25 16.6189 7.25 18.6667C7.25 20.7144 8.96445 22.3333 11 22.3333C13.0356 22.3333 14.75 20.7144 14.75 18.6667Z" stroke="#231149" stroke-width="2"/>
</svg>
