<svg width="22" height="28" viewBox="0 0 22 28" fill="none" xmlns="http://www.w3.org/2000/svg">
<path d="M11 0C6.42976 0 2.75 3.56825 2.75 8V9.33333C1.2375 9.33333 0 10.5333 0 12V25.3333C0 26.8 1.2375 28 2.75 28H19.25C20.7625 28 22 26.8 22 25.3333V12C22 10.5333 20.7625 9.33333 19.25 9.33333V8C19.25 3.56825 15.5702 0 11 0ZM11 2.66667C14.1298 2.66667 16.5 4.96508 16.5 8V9.33333H5.5V8C5.5 4.96508 7.87024 2.66667 11 2.66667ZM11 16C12.5125 16 13.75 17.2 13.75 18.6667C13.75 20.1333 12.5125 21.3333 11 21.3333C9.4875 21.3333 8.25 20.1333 8.25 18.6667C8.25 17.2 9.4875 16 11 16Z" fill="#231149"/>
</svg>
