<svg width="32" height="32" viewBox="0 0 32 32" fill="none" xmlns="http://www.w3.org/2000/svg">
<path d="M1.67864 5.13018C-0.394465 7.16067 -0.532852 10.4131 1.18295 12.8751C1.54699 13.3975 2.32552 13.2743 2.63149 12.7173C3.26579 11.5626 4.31884 9.81274 5.38915 8.76443C6.45945 7.71612 8.24608 6.68471 9.42497 6.06344C9.99363 5.76377 10.1195 5.00123 9.58611 4.64467C7.07238 2.96414 3.75174 3.09968 1.67864 5.13018Z" fill="#AE9FCD"/>
<path d="M30.3214 5.13018C32.3945 7.16067 32.5328 10.4131 30.8171 12.8751C30.453 13.3975 29.6745 13.2743 29.3685 12.7173C28.7342 11.5626 27.6812 9.81274 26.6108 8.76443C25.5405 7.71612 23.7539 6.68471 22.575 6.06344C22.0064 5.76377 21.8805 5.00123 22.4139 4.64467C24.9276 2.96414 28.2483 3.09968 30.3214 5.13018Z" fill="#AE9FCD"/>
<path fill-rule="evenodd" clip-rule="evenodd" d="M16.0503 32C23.2643 32 29.1123 26.2722 29.1123 19.2065C29.1123 12.1409 23.2643 6.41301 16.0503 6.41301C8.83642 6.41301 2.98838 12.1409 2.98838 19.2065C2.98838 26.2722 8.83642 32 16.0503 32ZM8.49091 22.459C8.26378 22.006 7.7047 21.8191 7.24219 22.0415C6.77967 22.264 6.58885 22.8116 6.81599 23.2646C8.34239 26.309 11.9582 28.3447 16.0504 28.3447C20.1427 28.3447 23.7584 26.3089 25.2849 23.2646C25.512 22.8116 25.3212 22.264 24.8587 22.0415C24.3961 21.8191 23.8371 22.006 23.6099 22.459C22.4497 24.773 19.5586 26.5171 16.0504 26.5171C12.5423 26.5171 9.65113 24.773 8.49091 22.459ZM13.0192 17.5518C12.6462 17.9 12.0556 17.886 11.7002 17.5207C11.5666 17.3833 11.1541 17.2108 10.5732 17.3633C9.99229 17.5158 9.72316 17.8671 9.67755 18.0515C9.55622 18.542 9.05189 18.8433 8.5511 18.7245C8.05031 18.6056 7.74269 18.1117 7.86402 17.6212C8.11191 16.619 9.03972 15.8736 10.0902 15.5979C11.1408 15.3222 12.3248 15.5134 13.051 16.2599C13.4065 16.6252 13.3923 17.2037 13.0192 17.5518ZM20.4578 17.5201C20.1024 17.8855 19.5118 17.8994 19.1388 17.5513C18.7657 17.2031 18.7515 16.6247 19.107 16.2593C19.8337 15.5123 21.0187 15.3209 22.0702 15.5969C23.1217 15.8728 24.0502 16.6189 24.2983 17.6217C24.4196 18.1122 24.112 18.6062 23.6112 18.725C23.1104 18.8439 22.6061 18.5426 22.4848 18.0521C22.439 17.867 22.1691 17.515 21.5873 17.3623C21.0054 17.2095 20.592 17.3823 20.4578 17.5201ZM15.1174 11.8959C15.1174 11.3912 15.5351 10.9821 16.0504 10.9821C16.5657 10.9821 16.9834 11.3912 16.9834 11.8959V19.2065H20.7152C21.2305 19.2065 21.6482 19.6156 21.6482 20.1203C21.6482 20.625 21.2305 21.0341 20.7152 21.0341H16.0504C15.5351 21.0341 15.1172 20.625 15.1172 20.1203C15.1172 20.1135 15.1173 20.1067 15.1174 20.0999V11.8959Z" fill="#AE9FCD"/>
<path d="M5.51411 31.6864C5.14975 31.3295 5.14975 30.7509 5.51411 30.3941L8.81275 27.1632C9.17711 26.8063 9.76785 26.8063 10.1322 27.1632C10.4966 27.5201 10.4966 28.0987 10.1322 28.4555L6.83356 31.6864C6.4692 32.0433 5.87846 32.0433 5.51411 31.6864Z" fill="#AE9FCD"/>
<path d="M26.9262 31.6864C27.2906 31.3295 27.2906 30.7509 26.9262 30.3941L23.6276 27.1632C23.2632 26.8063 22.6725 26.8063 22.3081 27.1632C21.9437 27.5201 21.9437 28.0987 22.3081 28.4555L25.6067 31.6864C25.9711 32.0433 26.5618 32.0433 26.9262 31.6864Z" fill="#AE9FCD"/>
<path fill-rule="evenodd" clip-rule="evenodd" d="M24.8586 6.30318C24.3961 6.52564 23.837 6.33875 23.6098 5.88574C22.4496 3.57175 19.5585 1.82764 16.0503 1.82764C12.5422 1.82764 9.65104 3.57175 8.49083 5.88574C8.26369 6.33875 7.70462 6.52564 7.2421 6.30318C6.77958 6.08071 6.58877 5.53313 6.8159 5.08011C8.34231 2.03577 11.9581 3.50405e-07 16.0503 0C20.1426 -3.50405e-07 23.7584 2.03577 25.2848 5.08011C25.5119 5.53312 25.3211 6.08071 24.8586 6.30318Z" fill="#AE9FCD"/>
</svg>
