<svg width="807" height="175" viewBox="0 0 807 175" fill="none" xmlns="http://www.w3.org/2000/svg">
<path d="M0 19H661V156H0V19Z" fill="#FFCC49"/>
<path d="M166.786 72.2159H141.217C140.876 69.5909 140.178 67.2216 139.121 65.108C138.064 62.9944 136.666 61.1875 134.928 59.6875C133.189 58.1875 131.126 57.0455 128.74 56.2614C126.388 55.4432 123.78 55.0341 120.916 55.0341C115.837 55.0341 111.456 56.2784 107.774 58.7671C104.126 61.2557 101.314 64.8523 99.3367 69.5569C97.3935 74.2614 96.4219 79.9546 96.4219 86.6364C96.4219 93.5909 97.4105 99.4205 99.3878 104.125C101.399 108.795 104.212 112.324 107.825 114.71C111.473 117.063 115.786 118.239 120.763 118.239C123.558 118.239 126.098 117.881 128.382 117.165C130.7 116.449 132.729 115.409 134.467 114.045C136.24 112.648 137.689 110.96 138.814 108.983C139.973 106.972 140.774 104.705 141.217 102.182L166.786 102.335C166.342 106.972 164.996 111.54 162.746 116.04C160.53 120.54 157.479 124.648 153.592 128.364C149.706 132.045 144.967 134.977 139.376 137.159C133.82 139.341 127.445 140.432 120.251 140.432C110.774 140.432 102.286 138.352 94.7855 134.193C87.3196 130 81.4219 123.898 77.0923 115.886C72.7628 107.875 70.598 98.125 70.598 86.6364C70.598 75.1137 72.7969 65.3466 77.1946 57.3353C81.5923 49.3239 87.5412 43.2387 95.0412 39.0796C102.541 34.9205 110.945 32.8409 120.251 32.8409C126.592 32.8409 132.456 33.7273 137.842 35.5C143.229 37.2387 147.967 39.7955 152.058 43.1705C156.149 46.5114 159.473 50.6194 162.03 55.4944C164.587 60.3694 166.172 65.9432 166.786 72.2159Z" fill="#231149"/>
<path d="M237.878 65.6705C237.537 61.9205 236.02 59.0057 233.327 56.9262C230.668 54.8125 226.866 53.7557 221.923 53.7557C218.651 53.7557 215.923 54.1819 213.742 55.0341C211.56 55.8864 209.923 57.0625 208.832 58.5625C207.741 60.0284 207.179 61.7159 207.145 63.625C207.077 65.1932 207.384 66.5739 208.065 67.7671C208.781 68.9603 209.804 70.0171 211.134 70.9375C212.497 71.8239 214.134 72.608 216.043 73.2898C217.952 73.9716 220.099 74.5682 222.486 75.0796L231.486 77.125C236.668 78.25 241.236 79.75 245.19 81.625C249.179 83.5 252.52 85.733 255.213 88.3239C257.94 90.9148 260.003 93.8978 261.401 97.2728C262.798 100.648 263.514 104.432 263.548 108.625C263.514 115.239 261.844 120.915 258.537 125.653C255.23 130.392 250.474 134.023 244.27 136.545C238.099 139.068 230.651 140.33 221.923 140.33C213.162 140.33 205.526 139.017 199.014 136.392C192.503 133.767 187.44 129.778 183.827 124.426C180.213 119.074 178.355 112.307 178.253 104.125H202.492C202.696 107.5 203.599 110.313 205.202 112.563C206.804 114.813 209.003 116.517 211.798 117.676C214.628 118.835 217.901 119.415 221.617 119.415C225.026 119.415 227.923 118.955 230.31 118.034C232.73 117.114 234.588 115.835 235.884 114.199C237.179 112.563 237.844 110.688 237.878 108.574C237.844 106.597 237.23 104.909 236.037 103.511C234.844 102.08 233.003 100.852 230.514 99.8296C228.06 98.7728 224.923 97.8012 221.105 96.9148L210.162 94.358C201.094 92.2784 193.952 88.9205 188.736 84.2841C183.52 79.6137 180.929 73.3069 180.963 65.3637C180.929 58.8864 182.668 53.2103 186.179 48.3353C189.69 43.4603 194.548 39.6591 200.753 36.9319C206.957 34.2046 214.031 32.8409 221.974 32.8409C230.088 32.8409 237.128 34.2216 243.094 36.983C249.094 39.7103 253.747 43.5455 257.054 48.4887C260.361 53.4319 262.048 59.1591 262.117 65.6705H237.878Z" fill="#231149"/>
<path d="M371.395 72.2159H345.827C345.486 69.5909 344.787 67.2216 343.73 65.108C342.673 62.9944 341.276 61.1875 339.537 59.6875C337.798 58.1875 335.736 57.0455 333.349 56.2614C330.997 55.4432 328.389 55.0341 325.526 55.0341C320.446 55.0341 316.065 56.2784 312.384 58.7671C308.736 61.2557 305.923 64.8523 303.946 69.5569C302.003 74.2614 301.031 79.9546 301.031 86.6364C301.031 93.5909 302.02 99.4205 303.997 104.125C306.009 108.795 308.821 112.324 312.435 114.71C316.082 117.063 320.395 118.239 325.372 118.239C328.168 118.239 330.707 117.881 332.991 117.165C335.31 116.449 337.338 115.409 339.077 114.045C340.849 112.648 342.298 110.96 343.423 108.983C344.582 106.972 345.384 104.705 345.827 102.182L371.395 102.335C370.952 106.972 369.605 111.54 367.355 116.04C365.139 120.54 362.088 124.648 358.202 128.364C354.315 132.045 349.577 134.977 343.986 137.159C338.429 139.341 332.054 140.432 324.861 140.432C315.384 140.432 306.895 138.352 299.395 134.193C291.929 130 286.031 123.898 281.702 115.886C277.372 107.875 275.207 98.125 275.207 86.6364C275.207 75.1137 277.406 65.3466 281.804 57.3353C286.202 49.3239 292.151 43.2387 299.651 39.0796C307.151 34.9205 315.554 32.8409 324.861 32.8409C331.202 32.8409 337.065 33.7273 342.452 35.5C347.838 37.2387 352.577 39.7955 356.668 43.1705C360.759 46.5114 364.082 50.6194 366.639 55.4944C369.196 60.3694 370.781 65.9432 371.395 72.2159Z" fill="#231149"/>
<path d="M411.192 34.2728V139H385.879V34.2728H411.192Z" fill="#231149"/>
<path d="M456.537 121.614V101.875L499.44 34.2728H516.98V61.0682H506.804L481.696 100.852V101.67H543.827V121.614H456.537ZM507.111 139V115.58L507.622 106.938V34.2728H531.298V139H507.111Z" fill="#231149"/>
<path d="M557.097 139V120.795L595.295 87.3523C598.159 84.7614 600.597 82.3921 602.608 80.2444C604.619 78.0625 606.153 75.8807 607.21 73.6989C608.267 71.483 608.795 69.0796 608.795 66.4887C608.795 63.5909 608.165 61.1194 606.903 59.0739C605.642 56.9944 603.903 55.3921 601.688 54.2671C599.472 53.1421 596.932 52.5796 594.068 52.5796C591.17 52.5796 588.631 53.1762 586.449 54.3694C584.267 55.5284 582.562 57.2159 581.335 59.4319C580.142 61.6478 579.545 64.3409 579.545 67.5114H555.562C555.562 60.3864 557.165 54.233 560.369 49.0512C563.574 43.8694 568.074 39.8807 573.869 37.0853C579.699 34.2557 586.466 32.8409 594.17 32.8409C602.114 32.8409 609.017 34.1705 614.881 36.8296C620.744 39.4887 625.278 43.2046 628.483 47.9773C631.722 52.7159 633.341 58.2216 633.341 64.4944C633.341 68.483 632.54 72.4375 630.938 76.358C629.335 80.2784 626.455 84.608 622.295 89.3466C618.17 94.0853 612.307 99.7614 604.705 106.375L592.176 117.932V118.597H634.619V139H557.097Z" fill="#231149"/>
<path d="M674 19H807V156H674V19Z" fill="#FFCC49"/>
<path d="M700.614 139V34.2727H744.284C752.125 34.2727 758.688 35.3807 763.972 37.5966C769.29 39.8125 773.278 42.9147 775.938 46.9034C778.631 50.892 779.977 55.5113 779.977 60.7613C779.977 64.75 779.142 68.3125 777.472 71.4488C775.801 74.5511 773.5 77.125 770.568 79.1704C767.636 81.2159 764.244 82.6477 760.392 83.4659V84.4886C764.619 84.6932 768.523 85.8352 772.102 87.9148C775.716 89.9943 778.614 92.892 780.795 96.6079C782.977 100.29 784.068 104.653 784.068 109.699C784.068 115.324 782.636 120.352 779.773 124.784C776.909 129.182 772.767 132.659 767.347 135.216C761.926 137.739 755.347 139 747.608 139H700.614ZM725.926 118.597H741.574C747.063 118.597 751.102 117.557 753.693 115.477C756.318 113.398 757.631 110.5 757.631 106.784C757.631 104.091 757 101.773 755.739 99.8295C754.477 97.8523 752.688 96.3352 750.369 95.2784C748.051 94.1875 745.273 93.642 742.034 93.642H725.926V118.597ZM725.926 77.3295H739.938C742.699 77.3295 745.153 76.8693 747.301 75.9488C749.449 75.0284 751.119 73.6988 752.313 71.9602C753.54 70.2216 754.153 68.125 754.153 65.6704C754.153 62.1591 752.909 59.3977 750.42 57.3863C747.932 55.375 744.574 54.3693 740.347 54.3693H725.926V77.3295Z" fill="#231149"/>
<path fill-rule="evenodd" clip-rule="evenodd" d="M20.3333 8.21596H16.108C13.8392 8.21596 12 6.37676 12 4.10798V4.10798C12 1.83921 13.8392 0 16.108 0H20.3333C29.5381 0 37 7.35682 37 16.4319V158.568C37 167.643 29.5381 175 20.3333 175H16.108C13.8392 175 12 173.161 12 170.892V170.892C12 168.623 13.8392 166.784 16.108 166.784H20.3333C24.9357 166.784 28.6667 163.106 28.6667 158.568V16.4319C28.6667 11.8944 24.9357 8.21596 20.3333 8.21596Z" fill="#231149"/>
<path fill-rule="evenodd" clip-rule="evenodd" d="M44.5517 8.21596H47.892C50.1608 8.21596 52 6.37676 52 4.10798V4.10798C52 1.83921 50.1608 0 47.892 0H44.5517C35.4105 0 28 7.35682 28 16.4319V158.568C28 167.643 35.4105 175 44.5517 175H47.892C50.1608 175 52 173.161 52 170.892V170.892C52 168.623 50.1608 166.784 47.892 166.784H44.5517C39.9811 166.784 36.2759 163.106 36.2759 158.568V16.4319C36.2759 11.8944 39.9811 8.21596 44.5517 8.21596Z" fill="#231149"/>
</svg>
